<svg width="19" height="19" viewBox="0 0 19 19" fill="none" xmlns="http://www.w3.org/2000/svg">
<path d="M18.62 5.51C18.4933 5.38334 15.7067 5.32 13.5533 5.32C13.5533 3.16667 13.49 0.253333 13.3633 0.19C13.11 -0.0633333 5.76333 -0.0633333 5.44666 0.19C5.32 0.316667 5.25667 3.10334 5.25667 5.32C3.10333 5.32 0.253333 5.38334 0.19 5.51C-0.0633333 5.76334 -0.0633333 13.11 0.19 13.49C0.316667 13.6167 3.10333 13.68 5.25667 13.68C5.25667 15.8333 5.32 18.7467 5.44666 18.81C5.7 19.0633 13.0467 19.0633 13.3633 18.81C13.49 18.6833 13.5533 15.8967 13.5533 13.68C15.7067 13.68 18.5567 13.6167 18.62 13.49C18.9367 13.1733 18.9367 5.76334 18.62 5.51Z" fill="#C6C6C6"/>
<path d="M11.843 3.73632C11.083 2.72299 10.1964 1.83631 9.3097 1.13965C8.42303 1.89965 7.53637 2.78632 6.77637 3.73632C8.48637 3.79965 10.133 3.79965 11.843 3.73632Z" fill="#969FA3"/>
<path d="M6.77637 15.1998C7.53637 16.2132 8.42303 17.0998 9.3097 17.7965C10.1964 17.0365 11.083 16.1498 11.843 15.1998C10.133 15.1365 8.5497 15.1365 6.77637 15.1998Z" fill="#969FA3"/>
<path d="M15.0099 11.97C16.0232 11.21 16.9099 10.3233 17.6066 9.43665C16.8466 8.54999 15.9599 7.66332 15.0099 6.90332C14.9466 8.67665 14.9466 10.26 15.0099 11.97Z" fill="#969FA3"/>
<path d="M3.60985 6.9668C2.59652 7.7268 1.70985 8.61346 1.01318 9.50013C1.77318 10.3868 2.65985 11.2735 3.60985 12.0335C3.67318 10.2601 3.67318 8.6768 3.60985 6.9668Z" fill="#969FA3"/>
<path d="M12.0968 9.43705C12.0968 7.85372 10.8301 6.65039 9.3101 6.65039C7.72677 6.65039 6.52344 7.91705 6.52344 9.43705C6.52344 10.9571 7.7901 12.2237 9.3101 12.2237C10.8934 12.287 12.0968 11.0204 12.0968 9.43705Z" fill="#969FA3"/>
</svg>
