<svg width="22" height="22" viewBox="0 0 22 22" fill="none" xmlns="http://www.w3.org/2000/svg">
<path d="M16 11.9999L12 20.9999C11.2044 20.9999 10.4413 20.6838 9.87871 20.1212C9.3161 19.5586 9.00003 18.7955 9.00003 17.9999V13.9999H3.34003C3.05012 14.0032 2.76297 13.9434 2.49846 13.8247C2.23395 13.7059 1.99842 13.5311 1.80817 13.3124C1.61793 13.0936 1.47753 12.8361 1.39669 12.5576C1.31586 12.2792 1.29652 11.9865 1.34003 11.6999L2.72003 2.69987C2.79235 2.22297 3.0346 1.78827 3.40212 1.47587C3.76965 1.16347 4.2377 0.99442 4.72003 0.999873H16M16 11.9999V0.999873M16 11.9999H18.67C19.236 12.0099 19.7859 11.8117 20.2154 11.4431C20.645 11.0744 20.9242 10.5608 21 9.99987V2.99987C20.9242 2.43893 20.645 1.92538 20.2154 1.55669C19.7859 1.18801 19.236 0.989864 18.67 0.999873H16" stroke="#F3F3F3" stroke-width="2" stroke-linecap="round" stroke-linejoin="round"/>
</svg>
