<svg width="33" height="34" viewBox="0 0 33 34" fill="none" xmlns="http://www.w3.org/2000/svg">
<g id="Shopping cart" clip-path="url(#clip0_1111_566)">
<path id="Icon" d="M1.64355 2.25415H7.08274L10.727 20.4618C10.8513 21.0879 11.1919 21.6502 11.6891 22.0505C12.1863 22.4507 12.8084 22.6633 13.4466 22.6511H26.6638C27.302 22.6633 27.9241 22.4507 28.4213 22.0505C28.9185 21.6502 29.2591 21.0879 29.3834 20.4618L31.5591 9.05314H8.44254M13.8817 29.4501C13.8817 30.2011 13.2729 30.8099 12.5219 30.8099C11.7709 30.8099 11.1621 30.2011 11.1621 29.4501C11.1621 28.6991 11.7709 28.0903 12.5219 28.0903C13.2729 28.0903 13.8817 28.6991 13.8817 29.4501ZM28.8395 29.4501C28.8395 30.2011 28.2307 30.8099 27.4797 30.8099C26.7287 30.8099 26.1199 30.2011 26.1199 29.4501C26.1199 28.6991 26.7287 28.0903 27.4797 28.0903C28.2307 28.0903 28.8395 28.6991 28.8395 29.4501Z" stroke="#D9D9D9" stroke-width="2.9009" stroke-linecap="round" stroke-linejoin="round"/>
</g>
<defs>
<clipPath id="clip0_1111_566">
<rect width="32.6351" height="32.6351" fill="white" transform="translate(0.283691 0.894287)"/>
</clipPath>
</defs>
</svg>
